<svg id="SvgjsSvg1015" width="288" height="288" xmlns="http://www.w3.org/2000/svg" version="1.1" xmlns:xlink="http://www.w3.org/1999/xlink" xmlns:svgjs="http://svgjs.com/svgjs"><defs id="SvgjsDefs1016"></defs><g id="SvgjsG1017"><svg xmlns="http://www.w3.org/2000/svg" width="288" height="288" enable-background="new 0 0 512 512" viewBox="0 0 512 512"><circle cx="256" cy="256" r="256" fill="#037969" class="colorff475a svgShape"></circle><path fill="#004d40" d="m512 256c0-22.269-2.844-43.874-8.187-64.472l-87.572-87.572-57.685 57.685-42.165-42.165-60.467 135.866-75.608-16.418 50.478 50.479-116.652 116.651 103.019 103.019c12.665 1.927 25.635 2.927 38.839 2.927 141.385 0 256-114.615 256-256z" class="colord1093a svgShape"></path><path fill="#ffffff" d="m258.503 304.505 22.769 35.377c12.848-6.661 25.015-14.381 36.395-23.054l-12.767-51.689 33.76 33.76c27.368-26.139 48.716-58.498 62.061-95.093l-25.282-20.368 34.285-10.084c5.062-22.054 7.357-45.309 6.518-69.398v-.001c-24.089-.839-47.344 1.456-69.399 6.518l-10.084 34.285-20.367-25.282c-36.595 13.345-68.954 34.693-95.093 62.061l33.76 33.76-51.688-12.768c-8.673 11.379-16.393 23.547-23.054 36.395l35.377 22.769-46.68 2.303c-12.339 31.91-18.537 67.17-17.239 104.426v.001c37.256 1.298 72.516-4.9 104.427-17.239z" class="colorfff svgShape"></path><path fill="#e9edf5" d="m416.241 103.956c-.014 0-.028 0-.041-.001l-264.427 264.427c0 .013 0 .026.001.04v.001c37.256 1.298 72.516-4.899 104.427-17.239l2.303-46.68 22.769 35.376c12.848-6.661 25.015-14.381 36.395-23.054l-12.768-51.686 33.76 33.76c27.368-26.139 48.716-58.498 62.061-95.092l-25.282-20.368 34.285-10.084c5.062-22.055 7.356-45.31 6.517-69.4z" class="colore9edf5 svgShape"></path><path fill="#e9edf5" d="m368.25 151.947c-5.643-5.642-14.791-5.642-20.433 0l-213.758 213.758 20.433 20.433 213.758-213.758c5.643-5.642 5.643-14.79 0-20.433z" class="colore9edf5 svgShape"></path><path fill="#cdd2e1" d="m368.25 151.947c-.007-.007-.015-.013-.022-.021l-223.973 223.974 10.237 10.237 213.758-213.757c5.643-5.643 5.643-14.79 0-20.433z" class="colorcdd2e1 svgShape"></path><path fill="#333940" d="m114.142 385.621c-5.642 5.642-5.642 14.791 0 20.433 5.642 5.643 14.791 5.643 20.433 0l23.5-23.5-20.433-20.433z" class="color333940 svgShape"></path><path fill="#181b1e" d="m114.123 406.032c.007.007.013.015.02.021 5.642 5.643 14.791 5.643 20.433 0l23.5-23.5-10.237-10.237z" class="color181b1e svgShape"></path></svg></g></svg>