<svg width="576" height="144" xmlns="http://www.w3.org/2000/svg" xmlns:xlink="http://www.w3.org/1999/xlink" overflow="hidden"><defs><clipPath id="clip0"><rect x="0" y="0" width="576" height="144"/></clipPath><clipPath id="clip1"><rect x="29" y="23" width="97" height="98"/></clipPath><clipPath id="clip2"><rect x="29" y="23" width="97" height="98"/></clipPath><clipPath id="clip3"><rect x="29" y="23" width="97" height="98"/></clipPath><clipPath id="clip4"><rect x="29" y="23" width="97" height="98"/></clipPath></defs><g clip-path="url(#clip0)"><rect x="0" y="0" width="576" height="144" fill="#FFFFFF" fill-opacity="0"/><text fill="#E0E0E0" font-family="Arial Rounded MT,Arial Rounded MT_MSFontService,sans-serif" font-weight="700" font-size="88" transform="translate(143.258 105)">RecoStep</text><g clip-path="url(#clip1)"><g clip-path="url(#clip2)"><g clip-path="url(#clip3)"><g clip-path="url(#clip4)"><path d="M40.9219 93.9688C46.2554 93.9688 50.6708 90.0078 51.4103 84.875L67.5756 84.875 65.6159 86.8347 67.7591 88.9778 72.306 84.431C72.602 84.1349 72.75 83.7472 72.75 83.3594 72.75 82.9716 72.602 82.5838 72.306 82.2878L67.7591 77.7409 65.6159 79.8841 67.5756 81.8438 51.4103 81.8438C50.6708 76.7109 46.2554 72.75 40.9219 72.75 35.0725 72.75 30.3125 77.5093 30.3125 83.3594 30.3125 89.2095 35.0725 93.9688 40.9219 93.9688ZM40.9219 75.7813C45.1002 75.7813 48.5 79.181 48.5 83.3594 48.5 87.5377 45.1002 90.9375 40.9219 90.9375 36.7435 90.9375 33.3438 87.5377 33.3438 83.3594 33.3438 79.181 36.7435 75.7813 40.9219 75.7813ZM83.3594 93.9688C89.2087 93.9688 93.9688 89.2095 93.9688 83.3594 93.9688 77.5093 89.2087 72.75 83.3594 72.75 77.51 72.75 72.75 77.5093 72.75 83.3594 72.75 89.2095 77.51 93.9688 83.3594 93.9688ZM83.3594 75.7813C87.5377 75.7813 90.9375 79.181 90.9375 83.3594 90.9375 87.5377 87.5377 90.9375 83.3594 90.9375 79.181 90.9375 75.7813 87.5377 75.7813 83.3594 75.7813 79.181 79.181 75.7813 83.3594 75.7813Z" fill="#E0E0E0" transform="matrix(1 0 -0 1.01031 29 23)"/><path d="M34.8594 37.8906C29.5258 37.8906 25.1105 41.8516 24.3711 46.9844L21.9766 46.9844C11.53 46.9844 3.03125 55.4831 3.03125 65.9297 3.03125 76.3763 11.53 84.875 21.9766 84.875L25.1381 84.875 23.1784 86.8347 25.3216 88.9778 29.8685 84.431C30.1645 84.1349 30.3125 83.7472 30.3125 83.3594 30.3125 82.9716 30.1645 82.5838 29.8685 82.2878L25.3216 77.7409 23.1784 79.8841 25.1381 81.8438 21.9766 81.8438C13.201 81.8438 6.0625 74.7045 6.0625 65.9297 6.0625 57.1549 13.201 50.0156 21.9766 50.0156L24.3711 50.0156C25.1105 55.1484 29.5258 59.1094 34.8594 59.1094 40.7087 59.1094 45.4688 54.3501 45.4688 48.5 45.4688 42.6499 40.7087 37.8906 34.8594 37.8906ZM34.8594 56.0781C30.681 56.0781 27.2813 52.6783 27.2813 48.5 27.2813 44.3217 30.681 40.9219 34.8594 40.9219 39.0377 40.9219 42.4375 44.3217 42.4375 48.5 42.4375 52.6783 39.0377 56.0781 34.8594 56.0781ZM40.4778 8.02216 38.3347 10.1653 40.2943 12.125 24.129 12.125C23.3896 6.99218 18.9742 3.03125 13.6406 3.03125 7.79125 3.03125 3.03125 7.79052 3.03125 13.6406 3.03125 19.4907 7.79125 24.25 13.6406 24.25 18.9742 24.25 23.3896 20.2891 24.129 15.1563L40.2943 15.1563 38.3347 17.1159 40.4778 19.2591 45.0247 14.7122C45.3207 14.4162 45.4688 14.0284 45.4688 13.6406 45.4688 13.2528 45.3207 12.865 45.0247 12.569ZM13.6406 21.2188C9.46229 21.2188 6.0625 17.819 6.0625 13.6406 6.0625 9.46229 9.46229 6.0625 13.6406 6.0625 17.819 6.0625 21.2188 9.46229 21.2188 13.6406 21.2188 17.819 17.819 21.2188 13.6406 21.2188Z" fill="#E0E0E0" transform="matrix(1 0 -0 1.01031 29 23)"/><path d="M93.9688 31.0703C93.9688 20.6237 85.47 12.125 75.0234 12.125L66.5665 12.125C65.8271 6.99218 61.4117 3.03125 56.0781 3.03125 50.2288 3.03125 45.4688 7.79052 45.4688 13.6406 45.4688 19.4907 50.2288 24.25 56.0781 24.25 61.4117 24.25 65.8271 20.2891 66.5665 15.1563L75.0234 15.1563C83.799 15.1563 90.9375 22.2955 90.9375 31.0703 90.9375 39.8451 83.799 46.9844 75.0234 46.9844L50.6432 46.9844 52.6028 45.0247 50.4597 42.8815 45.9128 47.4284C45.6168 47.7244 45.4688 48.1122 45.4688 48.5 45.4688 48.8878 45.6168 49.2756 45.9128 49.5716L50.4597 54.1185 52.6028 51.9753 50.6432 50.0156 75.0234 50.0156C85.47 50.0156 93.9688 41.5169 93.9688 31.0703ZM56.0781 21.2188C51.8998 21.2188 48.5 17.819 48.5 13.6406 48.5 9.46229 51.8998 6.0625 56.0781 6.0625 60.2565 6.0625 63.6563 9.46229 63.6563 13.6406 63.6563 17.819 60.2565 21.2188 56.0781 21.2188Z" fill="#E0E0E0" transform="matrix(1 0 -0 1.01031 29 23)"/></g></g></g></g></g></svg>