<svg id="SvgjsSvg1001" width="288" height="288" xmlns="http://www.w3.org/2000/svg" version="1.1" xmlns:xlink="http://www.w3.org/1999/xlink" xmlns:svgjs="http://svgjs.com/svgjs"><defs id="SvgjsDefs1002"></defs><g id="SvgjsG1008" transform="matrix(1,0,0,1,0,0)"><svg xmlns="http://www.w3.org/2000/svg" width="288" height="288" enable-background="new 0 0 512 512" viewBox="0 0 512 512"><path fill="#6666ff" d="m73.184 92.89c-38.63 4.689-65.662 12.594-73.184 14.282v360.938l18.633-4.673c76.143-19.014 161.225-19.014 237.367 0z" class="color704c55 svgShape"></path><path fill="#2525ff" d="m482 100.324c-73.546-15.251-153.208-13.597-226 3.567-5.211-2.534-66.881-53.994-166-59.041-5.059-.258-9.739-.959-15-.959h-15v360h15c103.921 0 169.629 54.267 181 60 3.04-.385 111.652-31.822 237.367-.454l18.633 4.672v-360.922c-7.491-1.756-23.772-5.572-30-6.863z" class="colorff6c6c svgShape"></path><path fill="#0000b9" d="m482 100.324c-73.546-15.251-153.208-13.597-226 3.567v40.913 286.377 32.71c3.04-.385 111.652-31.822 237.367-.454l18.633 4.672v-360.922c-7.491-1.756-23.772-5.572-30-6.863z" class="colore63950 svgShape"></path><path fill="#dcdcdc" d="m331 356.913v-176.045l133.041 88.022z" class="colord5e8fe svgShape"></path></svg></g></svg>